<?xml version="1.0" encoding="utf-8"?>
<!-- Generator: Adobe Illustrator 21.0.0, SVG Export Plug-In . SVG Version: 6.00 Build 0)  -->
<svg version="1.1" id="Layer_1" xmlns="http://www.w3.org/2000/svg" xmlns:xlink="http://www.w3.org/1999/xlink" x="0px" y="0px"
	 viewBox="0 0 180 180" style="enable-background:new 0 0 180 180;" xml:space="preserve">
<style type="text/css">
	.st0{fill:url(#SVGID_1_);}
	.st1{fill:url(#SVGID_2_);}
	.st2{fill:url(#SVGID_3_);}
	.st3{fill:url(#SVGID_4_);}
	.st4{fill:url(#SVGID_5_);}
	.st5{fill:url(#SVGID_6_);}
	.st6{fill:url(#SVGID_7_);}
	.st7{fill:url(#SVGID_8_);}
	.st8{fill:url(#SVGID_9_);}
	.st9{fill:url(#SVGID_10_);}
	.st10{fill:url(#SVGID_11_);}
	.st11{fill:url(#SVGID_12_);}
	.st12{fill:url(#SVGID_13_);}
	.st13{fill:url(#SVGID_14_);}
	.st14{fill:url(#SVGID_15_);}
	.st15{fill:url(#SVGID_16_);}
	.st16{fill:url(#SVGID_17_);}
	.st17{fill:url(#SVGID_18_);}
	.st18{fill:url(#SVGID_19_);}
	.st19{fill:url(#SVGID_20_);}
	.st20{fill:url(#SVGID_21_);}
	.st21{fill:url(#SVGID_22_);}
	.st22{fill:url(#SVGID_23_);}
	.st23{opacity:0.8;fill:#FFFFFF;enable-background:new    ;}
	.st24{fill:url(#SVGID_24_);}
	.st25{fill:#FFFFFF;}
	.st26{fill:url(#SVGID_25_);}
	.st27{fill:url(#SVGID_26_);}
	.st28{fill:url(#SVGID_27_);}
	.st29{fill:url(#SVGID_28_);}
	.st30{fill:url(#SVGID_29_);}
</style>
<g transform="translate(-8309.049 -22094.623)">
	
		<linearGradient id="SVGID_1_" gradientUnits="userSpaceOnUse" x1="8187.9185" y1="22555.3906" x2="8179.0234" y2="22553.748" gradientTransform="matrix(2.756 0 0 -10.676 -14185.7412 262977.0625)">
		<stop  offset="0" style="stop-color:#FE7062"/>
		<stop  offset="1" style="stop-color:#FF928E"/>
	</linearGradient>
	<rect x="8336.5" y="22200.7" class="st0" width="2.8" height="10.7"/>
	
		<linearGradient id="SVGID_2_" gradientUnits="userSpaceOnUse" x1="8096.8677" y1="22549.9609" x2="8096.8486" y2="22547.0605" gradientTransform="matrix(93.841 0 0 -8.61 -751430.125 216323.4219)">
		<stop  offset="0" style="stop-color:#E1473D"/>
		<stop  offset="1" style="stop-color:#E9605A"/>
	</linearGradient>
	<rect x="8338.5" y="22200.7" class="st1" width="93.8" height="8.6"/>
	
		<linearGradient id="SVGID_3_" gradientUnits="userSpaceOnUse" x1="8095.6816" y1="22574.4219" x2="8097.2114" y2="22575.957" gradientTransform="matrix(97.283 0 0 -54.2487 -779294.25 1246866)">
		<stop  offset="0" style="stop-color:#FF928E"/>
		<stop  offset="1" style="stop-color:#FEB3B1"/>
	</linearGradient>
	<path class="st2" d="M8431.3,22151.4c0-2.1-2.2-3.8-4.5-3.8h-88.6c-2.2-0.1-4.1,1.6-4.2,3.8v46.7c0.1,2.2,2,3.9,4.2,3.8h88.6
		c2.4,0,4.5-1.7,4.5-3.8L8431.3,22151.4z"/>
	
		<linearGradient id="SVGID_4_" gradientUnits="userSpaceOnUse" x1="8096.9639" y1="22574.4746" x2="8097.2173" y2="22572.6465" gradientTransform="matrix(91.769 0 0 -49.7701 -734661.4375 1145733.75)">
		<stop  offset="0" style="stop-color:#E1473D"/>
		<stop  offset="1" style="stop-color:#E9605A"/>
	</linearGradient>
	<path class="st3" d="M8428.2,22153.3c-0.1-2-1.8-3.5-3.7-3.4c0,0-0.1,0-0.1,0h-83.5c-2.2,0-4.4,1.5-4.4,3.4v42.7
		c0,1.9,2.2,3.7,4.4,3.7h83.5c2.1,0,3.8-1.6,3.8-3.7L8428.2,22153.3z"/>
	
		<linearGradient id="SVGID_5_" gradientUnits="userSpaceOnUse" x1="8101.4009" y1="22574.0059" x2="8099.8999" y2="22572.4883" gradientTransform="matrix(31.62 0 0 -42.5316 -247716.9375 982294.6875)">
		<stop  offset="0" style="stop-color:#FE7062"/>
		<stop  offset="1" style="stop-color:#FF928E"/>
	</linearGradient>
	<path class="st4" d="M8462.1,22185.4l-5.8-17.9c-0.2-0.4-0.6-0.7-1-0.7h-23.4v42.5h31.6L8462.1,22185.4z"/>
	
		<linearGradient id="SVGID_6_" gradientUnits="userSpaceOnUse" x1="8125.0054" y1="22541.1875" x2="8126.3564" y2="22541.0781" gradientTransform="matrix(26.0135 0 0 -7.9954 -202331.4063 202447.0469)">
		<stop  offset="0" style="stop-color:#E1473D"/>
		<stop  offset="1" style="stop-color:#E9605A"/>
	</linearGradient>
	<path class="st5" d="M8463.6,22202.7c-0.3-0.2-0.7-0.3-1.1-0.3l-24.4,0.5l-0.1,6.9l24.3,0.6c0.9,0,1.7-0.4,1.7-1v-5.9
		C8464.1,22203.2,8463.9,22202.9,8463.6,22202.7z"/>
	
		<linearGradient id="SVGID_7_" gradientUnits="userSpaceOnUse" x1="8110.1255" y1="22566.8672" x2="8107.7515" y2="22564.457" gradientTransform="matrix(19.4544 0 0 -16.1835 -149241.7813 387314.0625)">
		<stop  offset="0" style="stop-color:#09005D"/>
		<stop  offset="1" style="stop-color:#1A0F91"/>
	</linearGradient>
	<path class="st6" d="M8457.6,22184.2l-3.5-13.9c-0.1-0.5-0.5-0.9-1.1-0.9h-13.8c-0.6,0.1-1.1,0.6-1.1,1.2l0.3,11.2
		c0,0.5,0.4,1,0.9,1.1l16.9,2.7c0.6,0.1,1.2-0.3,1.3-0.9C8457.6,22184.4,8457.6,22184.3,8457.6,22184.2L8457.6,22184.2z"/>
	
		<linearGradient id="SVGID_8_" gradientUnits="userSpaceOnUse" x1="8134.8872" y1="22563.7539" x2="8130.7451" y2="22562.9941" gradientTransform="matrix(6.3354 0 0 -16.4527 -43038.1875 393393.1875)">
		<stop  offset="0" style="stop-color:#09005D"/>
		<stop  offset="1" style="stop-color:#1A0F91"/>
	</linearGradient>
	<path class="st7" d="M8456.8,22169.2l-0.2,0c-0.6,0.1-1,0.7-0.9,1.3c0,0,0,0.1,0,0.1l3.8,14.3c0.1,0.6,0.7,0.9,1.3,0.8l1.2-0.2
		L8456.8,22169.2z"/>
	
		<linearGradient id="SVGID_9_" gradientUnits="userSpaceOnUse" x1="8165.1792" y1="22509.959" x2="8162.4053" y2="22506.4277" gradientTransform="matrix(6.371 0 0 -2.582 -43343.7891 80187.1172)">
		<stop  offset="0" style="stop-color:#E1473D"/>
		<stop  offset="1" style="stop-color:#E9605A"/>
	</linearGradient>
	<path class="st8" d="M8439.7,22186.4h3.8c0.7,0,1.3,0.6,1.3,1.3l0,0c0,0.7-0.6,1.3-1.3,1.3h-3.8c-0.7,0-1.3-0.6-1.3-1.3l0,0
		C8438.4,22186.9,8439,22186.4,8439.7,22186.4z"/>
	
		<linearGradient id="SVGID_10_" gradientUnits="userSpaceOnUse" x1="8141.873" y1="22575.7129" x2="8139.0933" y2="22574.084" gradientTransform="matrix(14.259 0 0 -12.5603 -107195.9688 305481.7188)">
		<stop  offset="0" style="stop-color:#FF928E"/>
		<stop  offset="1" style="stop-color:#FEB3B1"/>
	</linearGradient>
	<path class="st9" d="M8433.5,22154.2c-0.4,0-0.8,0.1-1.1,0.3c-0.3,0.2-0.5,0.6-0.5,1v11.3h14.3
		C8446.1,22166.7,8445.3,22155,8433.5,22154.2z"/>
	
		<linearGradient id="SVGID_11_" gradientUnits="userSpaceOnUse" x1="8107.2378" y1="22571.9844" x2="8105.3428" y2="22569.0527" gradientTransform="matrix(22.162 0 0 -22.162 -171159.9219 522347.9063)">
		<stop  offset="0" style="stop-color:#09005D"/>
		<stop  offset="1" style="stop-color:#1A0F91"/>
	</linearGradient>
	<circle class="st10" cx="8446.5" cy="22210" r="11.1"/>
	
		<linearGradient id="SVGID_12_" gradientUnits="userSpaceOnUse" x1="8107.6099" y1="22565.5645" x2="8105.9409" y2="22563.4824" gradientTransform="matrix(17.996 0 0 -17.996 -137438.0313 428274.9375)">
		<stop  offset="0" style="stop-color:#E1473D"/>
		<stop  offset="1" style="stop-color:#E9605A"/>
	</linearGradient>
	<circle class="st11" cx="8446.5" cy="22210" r="9"/>
	
		<linearGradient id="SVGID_13_" gradientUnits="userSpaceOnUse" x1="8113.3433" y1="22555.8262" x2="8111.2246" y2="22553.2637" gradientTransform="matrix(12.2111 0 0 -11.4151 -90609.3203 279668.375)">
		<stop  offset="0" style="stop-color:#FF928E"/>
		<stop  offset="1" style="stop-color:#FEB3B1"/>
	</linearGradient>
	<path class="st12" d="M8454,22213.3c-0.1,0-0.2-0.1-0.2-0.1c0,0,0-0.1,0-0.1c1.7-4-0.2-8.5-4.1-10.2c-2.2-0.9-4.8-0.8-6.9,0.4
		c-0.1,0.1-0.2,0-0.2-0.1c-0.1-0.1,0-0.2,0.1-0.2c0,0,0,0,0,0c3.9-2.2,8.9-0.8,11.1,3.1c1.2,2.2,1.4,4.8,0.4,7.1
		C8454.1,22213.3,8454.1,22213.3,8454,22213.3z"/>
	
		<linearGradient id="SVGID_14_" gradientUnits="userSpaceOnUse" x1="8124.9375" y1="22550.5625" x2="8122.7573" y2="22547.3535" gradientTransform="matrix(8.254 0 0 -8.254 -58580.9336 208289.6094)">
		<stop  offset="0" style="stop-color:#09005D"/>
		<stop  offset="1" style="stop-color:#1A0F91"/>
	</linearGradient>
	<circle class="st13" cx="8446.5" cy="22210" r="4.1"/>
	
		<linearGradient id="SVGID_15_" gradientUnits="userSpaceOnUse" x1="8106.9771" y1="22572.2168" x2="8105.1279" y2="22568.9238" gradientTransform="matrix(22.162 0 0 -22.162 -171228.25 522347.9063)">
		<stop  offset="0" style="stop-color:#09005D"/>
		<stop  offset="1" style="stop-color:#1A0F91"/>
	</linearGradient>
	<circle class="st14" cx="8378.2" cy="22210" r="11.1"/>
	
		<linearGradient id="SVGID_16_" gradientUnits="userSpaceOnUse" x1="8107.6563" y1="22565.1758" x2="8105.6528" y2="22563.4473" gradientTransform="matrix(17.996 0 0 -17.996 -137506.3438 428274.9375)">
		<stop  offset="0" style="stop-color:#E1473D"/>
		<stop  offset="1" style="stop-color:#E9605A"/>
	</linearGradient>
	<circle class="st15" cx="8378.2" cy="22210" r="9"/>
	
		<linearGradient id="SVGID_17_" gradientUnits="userSpaceOnUse" x1="8111.6826" y1="22554.4043" x2="8112.6826" y2="22554.4043" gradientTransform="matrix(12.1924 0 0 -11.4151 -90526.6875 279668.375)">
		<stop  offset="0" style="stop-color:#FF928E"/>
		<stop  offset="1" style="stop-color:#FEB3B1"/>
	</linearGradient>
	<path class="st16" d="M8385.7,22213.3c-0.1,0-0.2-0.1-0.2-0.1c0,0,0-0.1,0-0.1c1.7-4-0.2-8.5-4.1-10.2c-2.2-0.9-4.8-0.8-6.9,0.4
		c-0.1,0-0.2,0-0.2-0.1c0-0.1,0-0.2,0.1-0.2c3.9-2.2,8.9-0.8,11.1,3.1c1.2,2.2,1.4,4.8,0.4,7.1
		C8385.8,22213.3,8385.8,22213.3,8385.7,22213.3z"/>
	
		<linearGradient id="SVGID_18_" gradientUnits="userSpaceOnUse" x1="8121.2773" y1="22546.998" x2="8122.3135" y2="22551.3047" gradientTransform="matrix(8.254 0 0 -8.254 -58649.25 208289.6094)">
		<stop  offset="0" style="stop-color:#09005D"/>
		<stop  offset="1" style="stop-color:#1A0F91"/>
	</linearGradient>
	<circle class="st17" cx="8378.2" cy="22210" r="4.1"/>
	
		<linearGradient id="SVGID_19_" gradientUnits="userSpaceOnUse" x1="8107.2524" y1="22572.7051" x2="8105.4023" y2="22569.4121" gradientTransform="matrix(22.162 0 0 -22.162 -171253.5938 522347.9063)">
		<stop  offset="0" style="stop-color:#09005D"/>
		<stop  offset="1" style="stop-color:#1A0F91"/>
	</linearGradient>
	<circle class="st18" cx="8352.8" cy="22210" r="11.1"/>
	
		<linearGradient id="SVGID_20_" gradientUnits="userSpaceOnUse" x1="8107.9399" y1="22565.1602" x2="8105.5249" y2="22563.5117" gradientTransform="matrix(17.996 0 0 -17.996 -137531.7031 428274.9375)">
		<stop  offset="0" style="stop-color:#E1473D"/>
		<stop  offset="1" style="stop-color:#E9605A"/>
	</linearGradient>
	<circle class="st19" cx="8352.8" cy="22210" r="9"/>
	
		<linearGradient id="SVGID_21_" gradientUnits="userSpaceOnUse" x1="8111.6567" y1="22554.4043" x2="8112.6567" y2="22554.4043" gradientTransform="matrix(12.211 0 0 -11.4151 -90702.8594 279668.375)">
		<stop  offset="0" style="stop-color:#FF928E"/>
		<stop  offset="1" style="stop-color:#FEB3B1"/>
	</linearGradient>
	<path class="st20" d="M8360.4,22213.3c-0.1,0-0.2-0.1-0.2-0.1c0,0,0-0.1,0-0.1c1.7-4-0.2-8.5-4.1-10.2c-2.2-0.9-4.8-0.8-6.9,0.4
		c-0.1,0.1-0.2,0-0.2-0.1c-0.1-0.1,0-0.2,0.1-0.2c0,0,0,0,0,0c3.9-2.2,8.9-0.8,11.1,3.1c1.2,2.2,1.4,4.8,0.4,7.1
		C8360.5,22213.3,8360.4,22213.3,8360.4,22213.3z"/>
	
		<linearGradient id="SVGID_22_" gradientUnits="userSpaceOnUse" x1="8121.4453" y1="22547.6973" x2="8122.4814" y2="22552.002" gradientTransform="matrix(8.254 0 0 -8.254 -58674.6016 208289.6094)">
		<stop  offset="0" style="stop-color:#09005D"/>
		<stop  offset="1" style="stop-color:#1A0F91"/>
	</linearGradient>
	<circle class="st21" cx="8352.8" cy="22210" r="4.1"/>
	
		<linearGradient id="SVGID_23_" gradientUnits="userSpaceOnUse" x1="8161.1978" y1="22577.1875" x2="8161.9067" y2="22578.5898" gradientTransform="matrix(4.993 0 0 -6.026 -32170.0488 157968.0469)">
		<stop  offset="0" style="stop-color:#FF928E"/>
		<stop  offset="1" style="stop-color:#FEB3B1"/>
	</linearGradient>
	<path class="st22" d="M8461,22196.2L8461,22196.2c1.4,0,2.5,1.1,2.5,2.5v1c0,1.4-1.1,2.5-2.5,2.5l0,0c-1.4,0-2.5-1.1-2.5-2.5v-1
		C8458.5,22197.3,8459.7,22196.2,8461,22196.2z"/>
	<path class="st23" d="M8460.8,22196.2v5.7h-0.9c-0.7-0.1-1.2-0.6-1.3-1.3v-3.6c0-0.6,0.7-0.8,1.3-0.8H8460.8z"/>
	
		<linearGradient id="SVGID_24_" gradientUnits="userSpaceOnUse" x1="8811.3193" y1="22569.9141" x2="8702.4502" y2="22569.125" gradientTransform="matrix(0.345 0 0 -25.6568 5425.8721 601237.375)">
		<stop  offset="0" style="stop-color:#FF928E"/>
		<stop  offset="1" style="stop-color:#FEB3B1"/>
	</linearGradient>
	<path class="st24" d="M8433.7,22194.8c-0.1,0-0.2-0.1-0.2-0.2v-25.3c0-0.1,0.1-0.2,0.2-0.2s0.2,0.1,0.2,0.2v25.3
		C8433.9,22194.7,8433.9,22194.8,8433.7,22194.8C8433.8,22194.8,8433.7,22194.8,8433.7,22194.8L8433.7,22194.8z"/>
	<path class="st25" d="M8443.5,22165.5c-0.1,0-0.1,0-0.2-0.1c-1-2.8-2.8-6.4-6.3-8c-1.2-0.6-2.5-0.9-3.8-0.8c-0.1,0-0.2-0.1-0.2-0.2
		c0-0.1,0.1-0.2,0.2-0.2l0,0c1.4-0.1,2.8,0.2,4,0.8c3.6,1.7,5.5,5.4,6.5,8.2C8443.7,22165.4,8443.6,22165.5,8443.5,22165.5
		C8443.5,22165.5,8443.5,22165.5,8443.5,22165.5L8443.5,22165.5z"/>
	
		<linearGradient id="SVGID_25_" gradientUnits="userSpaceOnUse" x1="8098.5396" y1="22568.791" x2="8099.3604" y2="22569.873" gradientTransform="matrix(44.765 0 0 -27.147 -354206.8438 634889.1875)">
		<stop  offset="0" style="stop-color:#FE7062"/>
		<stop  offset="1" style="stop-color:#FF928E"/>
	</linearGradient>
	<path class="st26" d="M8378.3,22197.9c2.3,0.1,4.3-1.7,4.4-4.1c0,0,0-0.1,0-0.1v-18.5c0-2.5-2.1-4.5-4.5-4.4
		c-7.6-0.1-23.1-0.1-35.9,1c-1.7,0.1-3.1,1.5-3.2,3.2l-1.2,17.9c0,2.4,1.8,4.3,4.2,4.4c0,0,0.1,0,0.1,0L8378.3,22197.9z"/>
	<path class="st25" d="M8360,22184c0,0.3-0.2,0.5-0.5,0.5h0c-0.3,0-0.5-0.2-0.5-0.5l0.8-13l1,0L8360,22184z"/>
	
		<linearGradient id="SVGID_26_" gradientUnits="userSpaceOnUse" x1="8098.4478" y1="22568.8613" x2="8099.668" y2="22569.8574" gradientTransform="matrix(43.6284 0 0 -26.7575 -344961.8125 626095.375)">
		<stop  offset="0" style="stop-color:#FE7062"/>
		<stop  offset="1" style="stop-color:#FF928E"/>
	</linearGradient>
	<path class="st27" d="M8422.6,22199.5c2.3,0.1,4.2-1.7,4.3-4c0,0,0,0,0-0.1v-18.3c0-2.4-2-4.4-4.4-4.4c-7.4-0.1-22.5-0.1-35,0.9
		c-1.7,0.1-3,1.5-3.1,3.2l-1.2,17.6c-0.1,2.3,1.8,4.3,4.1,4.3c0,0,0,0,0.1,0L8422.6,22199.5z"/>
	<path class="st25" d="M8404.7,22185.8c0,0.3-0.2,0.5-0.5,0.5h0c-0.3,0-0.5-0.2-0.5-0.5c0,0,0,0,0,0l0.8-12.8l1,0L8404.7,22185.8z"
		/>
	
		<linearGradient id="SVGID_27_" gradientUnits="userSpaceOnUse" x1="8100.874" y1="22564.9922" x2="8101.833" y2="22566.1895" gradientTransform="matrix(31.4351 0 0 -19.7262 -246312.0156 467294.8125)">
		<stop  offset="0" style="stop-color:#FE7062"/>
		<stop  offset="1" style="stop-color:#FF928E"/>
	</linearGradient>
	<path class="st28" d="M8371.3,22167.3v-13.5c0-1.8-1.4-3.2-3.2-3.2c-5.3-0.1-16.2-0.1-25.2,0.7c-1.2,0.1-2.2,1.1-2.2,2.3l-0.8,13
		c-0.1,1.7,1.3,3.1,3,3.2c0,0,0,0,0.1,0l25.3,0.5C8369.9,22170.4,8371.3,22169,8371.3,22167.3
		C8371.3,22167.4,8371.3,22167.3,8371.3,22167.3L8371.3,22167.3z"/>
	<path class="st25" d="M8355.4,22160.2c0,0.2-0.2,0.3-0.4,0.3h0c-0.2,0-0.4-0.2-0.3-0.4l0.5-9.5l0.7,0L8355.4,22160.2z"/>
	
		<linearGradient id="SVGID_28_" gradientUnits="userSpaceOnUse" x1="8100.9346" y1="22563.8262" x2="8102.5156" y2="22565.5742" gradientTransform="matrix(26.7796 0 0 -19.7355 -208598.75 467505.6563)">
		<stop  offset="0" style="stop-color:#FE7062"/>
		<stop  offset="0.53" style="stop-color:#FE7164"/>
		<stop  offset="0.72" style="stop-color:#FE776B"/>
		<stop  offset="0.86" style="stop-color:#FE8076"/>
		<stop  offset="0.97" style="stop-color:#FF8D87"/>
		<stop  offset="1" style="stop-color:#FF928E"/>
	</linearGradient>
	<path class="st29" d="M8398.7,22167.7v-13.5c0.1-1.6-1.1-3.1-2.7-3.2c-7.2-0.1-14.3,0.1-21.4,0.7c-1.1,0.2-1.9,1.2-1.9,2.3l-0.7,13
		c-0.2,1.6,1,3,2.6,3.2l21.6,0.5C8397.6,22170.6,8398.8,22169.3,8398.7,22167.7C8398.7,22167.7,8398.7,22167.7,8398.7,22167.7z"/>
	<path class="st25" d="M8385.1,22160.6c0,0.2-0.1,0.3-0.3,0.3h0c-0.2,0-0.3-0.2-0.3-0.4l0.5-9.5l0.6,0L8385.1,22160.6z"/>
	
		<linearGradient id="SVGID_29_" gradientUnits="userSpaceOnUse" x1="8101.4453" y1="22564.6563" x2="8102.9741" y2="22565.8223" gradientTransform="matrix(26.2563 0 0 -19.7305 -204334.7031 467392.8438)">
		<stop  offset="0" style="stop-color:#FE7062"/>
		<stop  offset="1" style="stop-color:#FF928E"/>
	</linearGradient>
	<path class="st30" d="M8426,22168.6v-13.5c0.1-1.6-1.1-3-2.7-3.2c-7-0.1-14,0.1-21,0.7c-1.1,0.2-1.9,1.2-1.8,2.3l-0.7,13
		c-0.2,1.6,0.9,3,2.5,3.2l21.1,0.5C8424.9,22171.5,8426.1,22170.1,8426,22168.6C8426,22168.6,8426,22168.6,8426,22168.6z"/>
	<path class="st25" d="M8412.6,22161.5c0,0.2-0.1,0.3-0.3,0.3h0c-0.2,0-0.3-0.2-0.3-0.4l0.5-9.5l0.6,0L8412.6,22161.5z"/>
</g>
</svg>
